<?xml version="1.0" standalone="no"?>
<!DOCTYPE svg PUBLIC "-//W3C//DTD SVG 1.1//EN" "http://www.w3.org/Graphics/SVG/1.1/DTD/svg11.dtd" >
<svg xmlns="http://www.w3.org/2000/svg">
<metadata>Generated by IcoMoon</metadata>
<defs>
<font id="icokate" horiz-adv-x="1024">
<font-face units-per-em="1024" ascent="960" descent="-64" />
<missing-glyph horiz-adv-x="1024" />
<glyph unicode="&#x20;" horiz-adv-x="512" d="" />
<glyph unicode="&#xe600;" glyph-name="back" d="M783.059 538.353v180.706h-361.412v-180.706h-180.706v-361.412h361.412v180.706h180.706zM662.588 297.412v-301.176h301.176v301.176h-301.176zM903.529 56.471h-180.706v180.706h180.706v-180.706zM60.235 899.765v-301.176h301.176v301.176h-301.176zM301.176 658.824h-180.706v180.706h180.706v-180.706z" />
<glyph unicode="&#xe601;" glyph-name="backward" d="M722.824 899.765h-662.588v-662.588h240.941v421.647h421.647zM421.647 538.353v-542.118h542.118v542.118h-542.118zM843.294 116.706h-301.176v301.176h301.176v-301.176z" />
<glyph unicode="&#xe602;" glyph-name="box" d="M864 787.2v-678.4h-678.4v678.4h678.4zM940.8 864h-832v-832h832v832z" />
<glyph unicode="&#xe603;" glyph-name="circle" d="M531.2 812.8c198.4 0 364.8-166.4 364.8-364.8s-166.4-364.8-364.8-364.8-364.8 166.4-364.8 364.8 160 364.8 364.8 364.8zM531.2 896c-249.6 0-448-198.4-448-448s198.4-448 448-448 448 198.4 448 448-204.8 448-448 448v0z" />
<glyph unicode="&#xe604;" glyph-name="connect" d="M76.8 896h281.6v-556.8h-281.6v556.8zM915.2 512v-448h-166.4v448h166.4zM972.8 563.2h-281.6v-556.8h281.6v556.8zM691.2 275.2l-332.8 332.8v70.4l332.8-339.2z" />
<glyph unicode="&#xe605;" glyph-name="forward" d="M60.235 899.765h662.588v-662.588h-662.588v662.588zM843.294 538.353v-421.647h-421.647v-120.471h542.118v542.118z" />
<glyph unicode="&#xe606;" glyph-name="front" d="M240.941 719.059h542.118v-542.118h-542.118v542.118zM361.412 899.765h-301.176v-301.176h120.471v180.706h180.706zM843.294 297.412v-180.706h-180.706v-120.471h301.176v301.176z" />
<glyph unicode="&#xe607;" glyph-name="gauge" d="M512 688.941c-1.602 0-3.084-0.446-4.68-0.476-0.018 0-0.036 0.006-0.054 0.006-2.090 0-4.024-0.578-6.102-0.632-14.432-0.602-28.798-1.542-42.556-4.391-100.454-19.631-179.917-98.617-202.981-199.692-0.506-2.187-1.488-4.168-1.94-6.379-1.934-9.577-2.102-19.715-2.988-29.642-0.699-7.837-2.361-15.39-2.361-23.401 0-0.078 0.024-0.145 0.024-0.223 0-0.084-0.024-0.163-0.024-0.253 0-19.197 2.349-38.087 6.331-56.507 0.241-1.108 0.343-2.235 0.596-3.337 4.174-18.203 10.427-35.744 18.203-52.561 0.44-0.934 0.777-1.891 1.223-2.819 18.733-39.322 46.7-74.041 82.51-100.153l1.903-1.422 56.332 80.944-1.891 1.422c-43.55 31.714-69.584 83.311-69.584 138.222 0 91.793 72.373 163.714 164.623 163.298 0.361-0.012 0.699-0.096 1.054-0.108 9.595-0.108 18.793-1.831 28.871-3.668l1.891-0.379c71.825-17.203 125.446-83.607 125.446-162.93 0-53.019-23.197-101.304-63.904-133.487l-1.891-1.422 1.891-1.891c17.041-18.462 38.34-44.020 62.958-75.74l1.422-1.891 1.891 1.422c67.217 50.176 107.454 129.705 107.454 213.492-0.006 145.787-118.344 264.602-263.668 264.602zM667.262 216.058c-23.666 29.822-43.55 54.435-60.115 72.421 40.707 32.66 63.904 82.366 63.904 135.855 0 81.794-55.41 149.956-129.265 167.569 2.211 12.999 4.421 26.991 6.192 40.707 2.289 16.029 5.012 32.846 7.325 47.212 122.248-20.793 215.63-126.946 215.63-255.488-0.006-81.89-38.822-159.527-103.671-208.276zM548.924 495.339c-5.204 5.204-10.891 8.993-17.992 11.836-7.096 2.837-14.673 4.253-23.666 4.253-8.517 0-16.565-1.422-23.666-4.259-7.102-2.843-13.252-6.626-18.462-11.836-5.204-4.728-8.993-10.885-11.836-17.51-2.837-6.626-4.259-13.728-4.259-21.299 0-8.047 1.422-15.149 4.259-21.299 2.843-5.68 6.626-10.885 10.891-15.149s9.469-7.572 15.149-9.469c5.68-2.367 11.836-3.319 17.516-3.319 4.734 0 9.939 0.476 14.673 1.891 4.734 1.422 9.469 3.319 13.252 5.68-0.946-1.422-1.891-3.313-3.313-4.734s-2.367-3.313-3.789-4.734l-54.435-67.217h26.979c3.319 0 6.156 0.476 8.999 1.891 2.837 1.422 4.734 2.843 6.15 4.734l39.291 55.856c2.837 3.795 5.674 8.059 8.041 12.318s4.265 8.517 6.156 12.782c1.422 4.259 2.837 8.993 3.789 13.728 0.946 4.728 1.416 9.939 1.416 15.143 0 8.047-0.946 15.619-3.789 22.721-2.837 7.102-6.626 13.258-11.354 17.992zM535.666 447.054c-1.422-3.789-2.837-7.102-5.68-9.469-2.837-2.367-5.68-4.734-9.463-6.15s-8.047-2.367-12.782-2.367c-8.993 0-16.095 2.367-20.829 7.572-5.204 4.734-7.572 12.306-7.572 21.775 0 4.259 0.476 8.047 1.891 11.836s3.313 7.102 5.68 9.469c2.367 2.837 5.68 4.734 8.993 6.156 3.313 1.416 7.572 2.361 11.836 2.361s8.047-0.47 11.836-1.891c3.789-1.422 6.626-2.837 9.469-5.68 2.843-2.837 4.734-5.68 6.156-9.469 1.422-3.313 1.891-7.572 1.891-12.306-0.006-4.265-0.952-8.047-1.428-11.836z" />
<glyph unicode="&#xe608;" glyph-name="icons" d="M100.394 859.606v-240.941h843.294v240.941h-843.294zM220.865 678.9h-60.235v120.471h60.235v-120.471zM341.335 678.9h-60.235v120.471h60.235v-120.471zM461.806 678.9h-60.235v120.471h60.235v-120.471zM100.394 558.429v-240.941h843.294v240.941h-843.294zM220.865 377.723h-60.235v120.471h60.235v-120.471zM341.335 377.723h-60.235v120.471h60.235v-120.471zM461.806 377.723h-60.235v120.471h60.235v-120.471zM100.394 257.253v-240.941h843.294v240.941h-843.294zM220.865 76.547h-60.235v120.471h60.235v-120.471zM341.335 76.547h-60.235v120.471h60.235v-120.471zM461.806 76.547h-60.235v120.471h60.235v-120.471z" />
<glyph unicode="&#xe609;" glyph-name="image" d="M44.8 934.4v-960h960v960h-960zM300.8 774.4c51.2 0 96-44.8 96-96s-44.8-96-96-96-96 44.8-96 96 44.8 96 96 96zM928 32h-832v268.8l172.8 89.6 192-192 256 320 211.2-198.4v-288z" />
<glyph unicode="&#xe60a;" glyph-name="line" d="M883.12 906.588l63.356-63.356-832.681-832.681-63.356 63.356 832.681 832.681z" />
<glyph unicode="&#xe60b;" glyph-name="lock" d="M698.729 441.976v144.565c0 90.353-60.235 174.682-150.588 192.753-120.471 24.094-228.894-66.259-228.894-186.729v-150.588h-78.306v-331.294h542.118v331.294c-84.329 0-84.329 0-84.329 0zM608.376 441.976h-192.753v150.588c0 66.259 66.259 120.471 138.541 90.353 36.141-18.071 60.235-54.212 60.235-96.376l-6.024-144.565z" />
<glyph unicode="&#xe60c;" glyph-name="pan" d="M697.6-44.8l-6.4 147.2 70.4 153.6 134.4 364.8c0 0 0 0 0 0s12.8 57.6-32 76.8c-25.6 0-83.2-115.2-121.6-230.4l-6.4-19.2-64 12.8 38.4 345.6c-6.4 19.2-25.6 44.8-38.4 44.8-6.4 0-19.2-6.4-32-25.6l-57.6-275.2v-32h-51.2l-19.2 345.6c-6.4 6.4-25.6 12.8-44.8 12.8-12.8 0-25.6-6.4-38.4-25.6l19.2-358.4-51.2-12.8-121.6 320c-6.4 6.4-32 12.8-44.8 6.4-25.6-6.4-32-38.4-32-64l140.8-358.4-44.8-25.6-121.6 134.4c-6.4 0-19.2 6.4-25.6 6.4-12.8 6.4-38.4 12.8-44.8 12.8-6.4-12.8 0-64 6.4-96l281.6-320v-134.4h-51.2v115.2l-275.2 320c-12.8 12.8-32 102.4 0 147.2 19.2 32 64 19.2 96 12.8 12.8 0 19.2-6.4 32-6.4h6.4l38.4-44.8-89.6 230.4v6.4c0 96 57.6 115.2 83.2 121.6 38.4 6.4 83.2-12.8 89.6-38.4l64-172.8-6.4 217.6 6.4 6.4c19.2 32 51.2 51.2 76.8 51.2 51.2 6.4 89.6-25.6 96-32l6.4-6.4 6.4-153.6 32 108.8c25.6 38.4 51.2 51.2 83.2 51.2 51.2-6.4 83.2-76.8 83.2-83.2v-6.4l-25.6-192c25.6 57.6 64 115.2 96 128 12.8 6.4 32 6.4 44.8 0 76.8-38.4 57.6-134.4 57.6-140.8l-44.8-134.4-89.6-224-64-147.2 6.4-134.4-51.2-6.4z" />
<glyph unicode="&#xe60d;" glyph-name="search" d="M819.2 403.2l-595.2-294.4v128l460.8 230.4-460.8 224v134.4l595.2-300.8v-121.6z" />
<glyph unicode="&#xe60e;" glyph-name="select" d="M288 966.4l550.4-640-320 12.8-230.4-230.4zM515.229 474.011l192.912-439.536-117.21-51.443-192.912 439.536 117.21 51.443z" />
<glyph unicode="&#xe60f;" glyph-name="singlevalue" d="M376.916 471.076c2.837-3.783 7.246-6.776 12.131-9.138s11.029-3.307 18.275-3.307 13.547 0.946 18.275 3.307 9.138 5.355 11.975 9.138c2.837 3.783 5.355 8.192 6.301 13.077 1.416 4.885 1.891 10.083 1.891 15.438 0 4.885-0.946 9.608-2.361 14.493-1.428 4.409-3.789 8.662-7.252 11.969-3.307 3.307-7.246 6.301-12.131 8.192s-10.553 2.837-17.33 2.837c-6.776 0-12.601-0.946-17.33-2.837-4.879-1.885-9.132-4.879-11.969-8.192-3.307-3.307-5.831-7.716-7.246-11.969-1.422-4.253-2.361-9.138-2.361-14.493s0.47-10.083 1.891-15.438c2.518-4.885 4.409-9.764 7.24-13.077zM407.793 422.4c-14.023 0-25.046-3.783-33.238-11.029s-11.975-18.275-11.975-32.768c0-6.301 0.946-11.499 2.837-16.854s4.885-9.608 8.662-13.547c3.783-3.783 8.662-6.776 14.023-8.662 5.831-1.891 12.131-3.307 19.691-3.307 7.246 0 14.023 0.946 19.691 3.307 5.831 1.891 10.083 5.355 14.023 8.662 3.783 3.783 6.776 8.192 8.662 13.547s2.837 11.029 2.837 16.86c0 14.493-3.783 25.522-11.975 32.768-8.192 7.56-19.215 11.023-33.238 11.023zM822.886 688.941h-621.773c-10.553 0-19.221-8.662-19.221-19.221v-443.446c0-10.553 8.662-19.221 19.221-19.221h621.767c10.553 0 19.221 8.662 19.221 19.221v443.446c0 10.559-8.662 19.221-19.215 19.221zM493.176 345.684c-4.409-9.608-10.553-17.8-18.745-24.576s-17.8-11.975-28.985-15.438c-11.029-3.783-23.63-5.355-37.647-5.355-13.547 0-25.992 1.891-37.647 5.355-11.029 3.783-21.269 8.662-28.985 15.438s-14.493 14.962-18.745 24.576c-4.409 9.608-6.776 20.323-6.776 31.822 0 15.438 3.783 28.985 11.499 39.538s19.691 18.745 35.599 24.1c-13.077 5.361-22.685 13.077-28.985 23.16s-9.608 21.739-9.608 35.599c0 10.083 1.891 19.221 6.301 27.883 3.783 8.662 9.608 16.384 17.33 22.685 7.24 6.301 15.908 11.499 26.461 14.968 10.553 3.307 21.263 5.355 33.708 5.355 11.975 0 23.63-1.891 33.714-5.355 10.083-3.307 18.745-8.662 26.467-14.962 7.716-6.301 13.077-14.023 17.33-22.685 3.783-8.662 6.301-17.8 6.301-27.883 0-14.023-3.307-25.992-9.608-35.599-6.307-10.089-15.914-17.336-28.991-23.166 16.384-5.355 28.515-13.547 35.599-24.1 7.722-10.553 11.505-24.1 11.505-39.538-0.319-11.499-2.68-22.215-7.090-31.822zM707.729 354.822c-4.409-10.553-11.029-20.323-19.221-28.515s-17.8-14.493-29.455-19.221c-11.499-4.885-24.1-6.776-38.123-6.776s-26.937 2.361-38.123 6.776c-11.029 4.409-20.793 10.553-28.985 18.745-7.716 8.192-14.023 17.8-18.275 29.455-4.409 11.505-6.295 24.112-6.295 38.129 0 12.601 2.361 25.046 7.716 38.593 5.355 13.077 13.077 26.937 23.63 40.96l63.169 84.908c2.361 2.837 5.355 5.355 9.608 7.716s9.138 2.837 14.493 2.837h40.484l-78.607-96.407c-1.891-1.891-3.307-3.783-4.885-5.831-1.416-1.891-2.837-3.783-4.409-5.831 5.355 2.361 10.553 4.885 16.384 6.301s12.601 2.361 19.221 2.361c10.083 0 19.691-1.416 29.455-4.885s17.8-8.192 25.046-14.962c7.246-6.776 13.077-14.962 17.33-24.576 4.409-9.608 6.776-21.269 6.776-34.659-0.313-12.908-2.68-24.407-6.933-35.117zM655.589 421.93c-4.409 4.409-9.608 7.246-15.438 9.608s-12.601 3.307-19.691 3.307c-7.090 0-13.547-1.416-19.691-3.783-5.831-2.361-11.029-5.825-14.968-10.077-4.409-4.409-7.246-9.608-9.608-15.438s-3.307-12.601-3.307-19.221c0-7.246 0.946-14.023 2.837-20.323s4.885-11.029 9.138-15.438c3.783-4.409 8.662-7.716 14.962-10.083 5.831-2.361 12.601-3.307 20.323-3.307 7.246 0 14.023 1.416 19.691 3.783 6.301 2.361 11.029 5.831 15.438 10.083 4.409 4.409 7.716 9.608 10.083 15.438s3.783 12.601 3.783 19.221c0 7.716-0.946 14.493-3.307 20.323-2.373 5.825-5.837 11.499-10.246 15.908z" />
<glyph unicode="&#xe610;" glyph-name="sparkline" d="M522.433 207.137h-437.224c-14.119 0-25.781 11.818-25.781 25.781v430.164c0 14.119 11.662 25.781 25.781 25.781h437.224v-481.726zM85.209 674.9c-6.602 0-11.662-5.216-11.662-11.818v-430.622c0-6.602 5.216-11.662 11.662-11.662h423.105v454.102h-423.105zM945.544 688.941h-433.544v-481.882h433.851c10.282 0 18.721 8.439 18.721 19.185v443.82c-0.307 10.439-8.288 18.878-19.028 18.878zM821.543 550.822c0-5.68-0.458-10.282-1.843-13.661-1.379-3.223-2.301-6.602-3.68-8.903l-97.756-201.349c-1.843-4.295-4.759-7.517-8.439-10.74-3.68-2.765-8.439-4.295-15.041-4.295h-31.919l99.593 197.204c2.301 4.295 4.295 7.981 6.602 11.204 2.301 3.223 4.759 6.602 7.517 9.824h-123.085c-2.765 0-5.216 0.922-7.060 2.765s-2.765 4.295-2.765 7.060v29.612h178.483v-18.721h-0.608zM161.792 328.68l-31.461 20.721 139.806 217.919 64.916-155.919 98.527 77.957 23.022-29.618-137.505-108.96-55.862 135.819z" />
<glyph unicode="&#xe611;" glyph-name="text" d="M460.8 896h128v-825.6h-128v825.6zM76.8 902.4h896v-96h-896v96zM876.8 902.4h96v-192h-96v192zM76.8 902.4h96v-192h-96v192zM332.8 102.4h384v-96h-384v96z" />
<glyph unicode="&#xe612;" glyph-name="trendingvalue" d="M767.518 520.788l63.602-59.314-67.409-73.861c-10.764-11.806-9.927-30.094 1.861-40.852 5.542-5.060 12.529-7.554 19.48-7.554 7.849 0 15.661 3.168 21.365 9.421l67 73.409 68.421-63.801 44.454 222.413-218.775-59.862zM264.415 471.076c2.837-3.777 7.246-6.776 12.131-9.138 4.891-2.367 11.023-3.307 18.275-3.307 7.24 0 13.547 0.94 18.269 3.307 4.722 2.361 9.138 5.355 11.969 9.138 2.837 3.783 5.361 8.192 6.307 13.071 1.41 4.885 1.885 10.083 1.885 15.432 0 4.891-0.94 9.608-2.361 14.493-1.416 4.415-3.783 8.674-7.246 11.981-3.307 3.313-7.24 6.301-12.131 8.192-4.879 1.885-10.553 2.831-17.324 2.831-6.776 0-12.601-0.946-17.33-2.837-4.885-1.891-9.138-4.879-11.975-8.192-3.301-3.301-5.819-7.716-7.24-11.969s-2.367-9.138-2.367-14.493c0-5.349 0.476-10.077 1.891-15.432 2.524-4.885 4.415-9.77 7.246-13.077zM295.298 422.406c-14.023 0-25.052-3.783-33.238-11.023-8.192-7.252-11.975-18.281-11.975-32.774 0-6.301 0.946-11.499 2.837-16.848 1.891-5.361 4.885-9.614 8.668-13.553 3.783-3.783 8.662-6.776 14.023-8.668 5.831-1.891 12.131-3.307 19.697-3.307 7.24 0 14.017 0.946 19.685 3.307 5.825 1.891 10.083 5.361 14.017 8.668 3.783 3.777 6.776 8.186 8.662 13.553 1.891 5.349 2.837 11.017 2.837 16.848 0 14.499-3.789 25.528-11.975 32.774-8.192 7.554-19.221 11.023-33.238 11.023zM710.385 688.941h-621.767c-10.559 0-19.221-8.668-19.221-19.221v-443.446c0-10.553 8.662-19.215 19.221-19.215h621.767c10.553 0 19.221 8.668 19.221 19.215v443.446c0 10.553-8.662 19.221-19.221 19.221zM380.681 345.678c-4.415-9.602-10.559-17.794-18.751-24.57s-17.8-11.975-28.991-15.438c-11.023-3.783-23.63-5.361-37.641-5.361-13.547 0-25.998 1.891-37.653 5.361-11.029 3.777-21.269 8.662-28.991 15.438-7.722 6.77-14.499 14.962-18.745 24.57-4.409 9.614-6.77 20.329-6.77 31.822 0 15.438 3.777 28.991 11.499 39.538s19.697 18.751 35.599 24.1c-13.071 5.349-22.685 13.071-28.979 23.154-6.307 10.089-9.608 21.757-9.608 35.617 0 10.071 1.891 19.209 6.301 27.877 3.777 8.668 9.608 16.39 17.33 22.691 7.24 6.301 15.908 11.499 26.461 14.962 10.553 3.307 21.263 5.355 33.72 5.355 11.969 0 23.624-1.891 33.708-5.355 10.083-3.313 18.745-8.668 26.461-14.962 7.722-6.301 13.071-14.023 17.33-22.691 3.783-8.668 6.307-17.8 6.307-27.877 0-14.023-3.307-25.998-9.608-35.611-6.301-10.077-15.908-17.324-28.985-23.154 16.378-5.355 28.509-13.547 35.599-24.1 7.716-10.553 11.499-24.1 11.499-39.538-0.319-11.505-2.68-22.215-7.090-31.828zM595.233 354.816c-4.415-10.547-11.029-20.317-19.215-28.509-8.192-8.192-17.8-14.493-29.461-19.221-11.499-4.885-24.094-6.776-38.117-6.776s-26.943 2.367-38.123 6.776c-11.023 4.415-20.793 10.559-28.991 18.751-7.722 8.192-14.023 17.8-18.269 29.455-4.421 11.505-6.301 24.106-6.301 38.123 0 12.601 2.361 25.046 7.716 38.599 5.361 13.071 13.071 26.937 23.63 40.954l63.163 84.914c2.361 2.837 5.361 5.355 9.608 7.722 4.259 2.367 9.144 2.837 14.499 2.837h40.484l-78.607-96.413c-1.897-1.897-3.307-3.783-4.885-5.831-1.416-1.897-2.831-3.783-4.409-5.831 5.355 2.367 10.553 4.885 16.384 6.301 5.825 1.422 12.601 2.361 19.215 2.361 10.083 0 19.691-1.41 29.461-4.885 9.764-3.464 17.8-8.192 25.040-14.962 7.252-6.77 13.077-14.962 17.336-24.576 4.409-9.608 6.77-21.263 6.77-34.653-0.313-12.914-2.668-24.419-6.927-35.135zM543.093 421.93c-4.415 4.409-9.614 7.24-15.438 9.608-5.831 2.361-12.601 3.313-19.691 3.313s-13.547-1.422-19.691-3.783c-5.831-2.361-11.035-5.825-14.968-10.083-4.415-4.409-7.24-9.608-9.608-15.438-2.361-5.825-3.307-12.601-3.307-19.215 0-7.246 0.946-14.017 2.831-20.323 1.897-6.307 4.885-11.023 9.138-15.438 3.789-4.409 8.668-7.716 14.968-10.071 5.831-2.367 12.601-3.319 20.329-3.319 7.24 0 14.017 1.416 19.685 3.783 6.307 2.361 11.029 5.825 15.444 10.083 4.409 4.409 7.722 9.608 10.083 15.438 2.349 5.825 3.765 12.595 3.765 19.209 0 7.722-0.946 14.487-3.307 20.317-2.361 5.837-5.825 11.511-10.234 15.92z" />
<glyph unicode="&#xe613;" glyph-name="unlock" d="M656.565 773.271c-90.353-18.071-150.588-102.4-150.588-192.753v-144.565h-367.435v-331.294h542.118v331.294c-30.118 0-84.329 0-84.329 0v144.565c0 42.165 24.094 84.329 60.235 96.376 66.259 30.118 138.541-24.094 138.541-90.353v-12.047h90.353v18.071c0 114.447-108.424 210.824-228.894 180.706z" />
<glyph unicode="&#xe614;" glyph-name="distro-stream" d="M963.2 636.16c-14.080 12.8-28.8 28.8-44.16 44.8-55.040 58.88-122.88 132.48-228.48 124.8-85.76-6.4-119.040-44.16-153.6-83.84-23.68-26.88-49.92-57.6-104.32-92.16-86.4-55.68-268.16-67.2-371.84-67.2v-108.8c0.64 0 1.92 0 2.56 0 32.64 0 76.16 1.28 124.16 5.12 136.32 10.24 238.080 37.12 304 79.36 67.2 42.88 101.76 83.2 127.36 112 29.44 33.92 38.4 44.16 79.36 46.72 49.92 3.84 88.32-33.28 140.8-90.24 21.12-23.040 42.88-46.72 66.56-65.28 16-12.16 35.84-22.4 57.6-30.080v124.8zM963.2 428.16c-25.6 3.84-47.36 8.32-64.64 14.080-20.48 5.76-39.040 19.84-58.88 34.56-38.4 28.8-85.76 64-156.8 49.28-48.64-10.24-80-37.12-105.6-58.24-19.2-16.64-36.48-30.72-59.52-37.76-90.24-28.16-294.4-39.040-456.96-40.32v-108.8c115.84 1.28 367.36 7.68 488.96 45.44 44.16 13.44 74.24 38.4 97.92 58.24 23.040 19.84 37.12 30.72 57.6 35.2 21.12 4.48 35.84-5.12 69.76-30.080 24.96-19.2 53.76-40.32 92.8-51.84 26.24-7.68 58.24-14.080 95.36-19.2v109.44zM963.2 219.52c-24.96 2.56-47.36 5.76-64 10.88-32.64 10.24-55.040 19.84-75.52 28.8-38.4 17.28-74.88 33.28-136.32 24.96-42.88-5.76-58.88-11.52-83.84-21.76-17.28-7.040-40.96-16.64-95.36-31.36-82.56-23.040-236.8-17.92-360.96-14.080-30.72 0.64-59.52 1.92-86.4 1.92v-108.8c25.6-0.64 53.76-1.28 82.56-1.92 52.48-1.28 108.16-3.2 162.56-3.2 87.040 0 169.6 4.48 230.4 21.12 60.8 16 87.68 27.52 107.52 35.2 18.56 7.68 26.24 10.88 57.6 14.72 31.36 4.48 44.16-1.28 78.72-16.64 21.76-9.6 49.28-21.76 87.68-33.28 26.24-7.68 59.52-12.8 95.36-16v109.44z" />
<glyph unicode="&#xe900;" glyph-name="doublearrow-down" d="M768 402.039l-45.94 45.961-210.060-210.158-210.060 210.158-45.94-45.61 256-256.47 256 256.119zM768 658.039l-45.94 45.961-210.060-210.158-210.060 210.158-45.94-45.61 256-256.47 256 256.119z" />
<glyph unicode="&#xe901;" glyph-name="doublearrow-left" d="M489.079 680.96l45.961-45.94-210.158-210.060 210.158-210.060-45.61-45.94-256.47 256 256.119 256zM745.079 680.96l45.961-45.94-210.158-210.060 210.158-210.060-45.61-45.94-256.47 256 256.119 256z" />
<glyph unicode="&#xe902;" glyph-name="doublearrow-right" d="M534.921 168.96l-45.961 45.94 210.158 210.060-210.158 210.060 45.61 45.94 256.47-256-256.119-256zM278.921 168.96l-45.961 45.94 210.158 210.060-210.158 210.060 45.61 45.94 256.47-256-256.119-256z" />
<glyph unicode="&#xe903;" glyph-name="doublearrow-up" d="M768 447.881l-45.94-45.961-210.060 210.158-210.060-210.158-45.94 45.61 256 256.47 256-256.119zM768 191.881l-45.94-45.961-210.060 210.158-210.060-210.158-45.94 45.61 256 256.47 256-256.119z" />
<glyph unicode="&#xe904;" glyph-name="fullscreen-enter" d="M436.554 762.986l-0.073-113.622 280.152 0.18-0.18-280.152 113.188-0.361 0.687 394.208-393.774-0.253zM196.76 129.672l393.774 0.253 0.073 113.622-280.152-0.18 0.18 280.152-113.188 0.361-0.687-394.208z" />
<glyph unicode="&#xe905;" glyph-name="fullscreen-exit" d="M576.72 903.152l113.622 0.073-0.18-280.152 280.152 0.18 0.361-113.188-394.208-0.687 0.253 393.774zM450.368-10.24l-113.622-0.073 0.18 280.152-280.152-0.18-0.361 113.188 394.208 0.687-0.253-393.774z" />
<glyph unicode="&#xe906;" glyph-name="sortby" d="M269.137 253.673l-47.158-46.545v470.109l47.158-46.545c9.432-9.309 25.937-9.309 35.368 0s9.432 25.6 0 34.909l-87.242 86.109c-2.358 2.327-4.716 2.327-9.432 4.655-4.716 0-9.432 2.327-11.789 2.327s-7.074 0-9.432-2.327c-2.358-2.327-4.716-2.327-9.432-4.655l-87.242-86.109c-9.432-9.309-9.432-25.6 0-34.909s25.937-9.309 35.368 0l47.158 46.545v-470.109l-47.158 46.545c-9.432 9.309-25.937 9.309-35.368 0s-9.432-25.6 0-34.909l87.242-86.109c2.358-2.327 4.716-2.327 9.432-4.655 4.716 0 9.432-2.327 11.789-2.327s7.074 0 9.432 2.327c2.358 2.327 4.716 2.327 9.432 4.655l87.242 86.109c9.432 9.309 9.432 25.6 0 34.909s-23.579 9.309-35.368 0zM691.2 730.764c33.011 0 58.947-25.6 58.947-58.182s-25.937-58.182-58.947-58.182h-221.642c-33.011 0-58.947 25.6-58.947 58.182s25.937 58.182 58.947 58.182h221.642zM785.516 498.036c33.011 0 58.947-25.6 58.947-58.182s-25.937-58.182-58.947-58.182h-315.958c-33.011 0-58.947 25.6-58.947 58.182s25.937 58.182 58.947 58.182h315.958zM879.832 267.636c33.011 0 58.947-25.6 58.947-58.182s-25.937-58.182-58.947-58.182h-410.274c-33.011 0-58.947 25.6-58.947 58.182s25.937 58.182 58.947 58.182h410.274z" />
<glyph unicode="&#xe907;" glyph-name="gtcircle" d="M512 207.36v0c-132.48 0-240.64 108.16-240.64 240.64v0c0 132.48 108.16 240.64 240.64 240.64v0c132.48 0 240.64-108.16 240.64-240.64v0c0-132.48-108.16-240.64-240.64-240.64z" />
<glyph unicode="&#xe908;" glyph-name="gtrect" d="M733.44 207.36h-442.88c-10.24 0-19.2 8.32-19.2 19.2v442.88c0 10.24 8.96 19.2 19.2 19.2h443.52c10.88 0 19.2-8.96 19.2-19.2v-443.52c-0.64-10.24-8.96-18.56-19.84-18.56z" />
<glyph unicode="&#xe909;" glyph-name="tool" d="M1023.108 723.488l-25.63 25.658-184.227-179.621-136.174 46.507-46.469 133.114 182.643 184.443-25.643 25.658c-72.282 5.137-146.384-15.712-201.859-72.165-67.557-66.714-88.592-163.267-65.685-245.391l-482.218-487.572c-50.461-46.206-50.461-128.304 0-179.621 50.461-51.33 132.169-51.33 182.643 0l443.76 442.664c0.707-0.354 0.903-1.258 1.61-1.599l36.835 40.086c86.105-25.658 180.732 0.655 248.328 67.369 55.462 56.44 77.898 128.619 72.086 200.47v0zM174.020 19.406c-25.237-25.658-66.091-25.658-91.315 0-25.237 25.658-25.237 67.658 0 88.205 12.619 12.829 29.91 19.25 46.456 19.25s32.24-6.408 44.859-19.25c25.237-20.548 25.237-62.547 0-88.205v0z" />
</font>
</defs>
</svg>
